@startuml Car Booking System Use Case Diagram
left to right direction
package "Car Booking"{
    class "<<Application>>\nCarBooking" as CarBooking{}

    class "<<Resource>>\nAuth" as ResourceAuth{
        <<GET>> +getMe():User
        <<GET>> +logout():void
        <<POST>> +login():token
        <<POST>> +register():User
    }

    class "<<Resource>>\nBooking" as ResourceBooking {
        <<GET>> +getBookings(): Booking
        <<POST>> +addBooking(): Booking
    }

    class "<<Representation>>\nHospital" as RepresentationHospital {
        -name
        -email
        -role
        -tel
        -password
        -createAt
    }

}

CarBooking ..> ResourceAuth:"/register\n<<Path>>"
CarBooking ..> ResourceAuth:"/login\n<<Path>>"
CarBooking ..> ResourceAuth:"/me\n<<Path>>"
CarBooking ..> ResourceAuth:"/logout\n<<Path>>"

CarBooking ..> ResourceBooking:""
ResourceAuth ..>RepresentationHospital: "<<use>>"
' ResourceAuth ..> ResourceHospital: "/{hospitalId}\n<<Path>>"
' ResourceHospital ..> RepresentationHospital: "<<use>>"

@enduml